<mxfile host="app.diagrams.net" agent="Mozilla/5.0 (Windows NT 10.0; Win64; x64) AppleWebKit/537.36 (KHTML, like Gecko) Chrome/131.0.0.0 Safari/537.36" version="26.0.16">
  <diagram id="R2lEEEUBdFMjLlhIrx00" name="Page-1">
    <mxGraphModel dx="1195" dy="622" grid="1" gridSize="10" guides="1" tooltips="1" connect="1" arrows="1" fold="1" page="1" pageScale="1" pageWidth="850" pageHeight="1100" math="0" shadow="0" extFonts="Permanent Marker^https://fonts.googleapis.com/css?family=Permanent+Marker">
      <root>
        <mxCell id="0" />
        <mxCell id="1" parent="0" />
        <mxCell id="3y-TYH4g0Kz7OYsDt9np-11" style="edgeStyle=orthogonalEdgeStyle;rounded=0;orthogonalLoop=1;jettySize=auto;html=1;" parent="1" source="3y-TYH4g0Kz7OYsDt9np-4" target="3y-TYH4g0Kz7OYsDt9np-3" edge="1">
          <mxGeometry relative="1" as="geometry">
            <Array as="points">
              <mxPoint x="425" y="440" />
              <mxPoint x="425" y="440" />
            </Array>
          </mxGeometry>
        </mxCell>
        <mxCell id="3y-TYH4g0Kz7OYsDt9np-1" value="MÃES" style="swimlane;childLayout=stackLayout;horizontal=1;startSize=50;horizontalStack=0;rounded=1;fontSize=14;fontStyle=0;strokeWidth=2;resizeParent=0;resizeLast=1;shadow=0;dashed=0;align=center;arcSize=0;whiteSpace=wrap;html=1;" parent="1" vertex="1">
          <mxGeometry x="160" y="600" width="160" height="120" as="geometry" />
        </mxCell>
        <mxCell id="3y-TYH4g0Kz7OYsDt9np-2" value="Nome&lt;div&gt;Telefone&lt;/div&gt;&lt;div&gt;Data de Nascimento&lt;/div&gt;" style="align=left;strokeColor=none;fillColor=none;spacingLeft=4;spacingRight=4;fontSize=12;verticalAlign=top;resizable=0;rotatable=0;part=1;html=1;whiteSpace=wrap;" parent="3y-TYH4g0Kz7OYsDt9np-1" vertex="1">
          <mxGeometry y="50" width="160" height="70" as="geometry" />
        </mxCell>
        <mxCell id="3y-TYH4g0Kz7OYsDt9np-3" value="BEBÊS" style="swimlane;childLayout=stackLayout;horizontal=1;startSize=50;horizontalStack=0;rounded=1;fontSize=14;fontStyle=0;strokeWidth=2;resizeParent=0;resizeLast=1;shadow=0;dashed=0;align=center;arcSize=4;whiteSpace=wrap;html=1;" parent="1" vertex="1">
          <mxGeometry x="350" y="400" width="160" height="120" as="geometry" />
        </mxCell>
        <mxCell id="3y-TYH4g0Kz7OYsDt9np-4" value="Nome&lt;div&gt;Data do Nascimento&lt;/div&gt;&lt;div&gt;Peso do Nascimento&lt;/div&gt;&lt;div&gt;Altura&lt;/div&gt;" style="align=left;strokeColor=none;fillColor=none;spacingLeft=4;spacingRight=4;fontSize=12;verticalAlign=top;resizable=0;rotatable=0;part=1;html=1;whiteSpace=wrap;" parent="3y-TYH4g0Kz7OYsDt9np-3" vertex="1">
          <mxGeometry y="50" width="160" height="70" as="geometry" />
        </mxCell>
        <mxCell id="3y-TYH4g0Kz7OYsDt9np-5" value="MÉDICOS" style="swimlane;childLayout=stackLayout;horizontal=1;startSize=50;horizontalStack=0;rounded=1;fontSize=14;fontStyle=0;strokeWidth=2;resizeParent=0;resizeLast=1;shadow=0;dashed=0;align=center;arcSize=0;whiteSpace=wrap;html=1;" parent="1" vertex="1">
          <mxGeometry x="520" y="600" width="160" height="120" as="geometry" />
        </mxCell>
        <mxCell id="3y-TYH4g0Kz7OYsDt9np-6" value="CRM&lt;div&gt;Nome&lt;/div&gt;&lt;div&gt;Telefone&lt;/div&gt;&lt;div&gt;Especialidade&lt;/div&gt;" style="align=left;strokeColor=none;fillColor=none;spacingLeft=4;spacingRight=4;fontSize=12;verticalAlign=top;resizable=0;rotatable=0;part=1;html=1;whiteSpace=wrap;" parent="3y-TYH4g0Kz7OYsDt9np-5" vertex="1">
          <mxGeometry y="50" width="160" height="70" as="geometry" />
        </mxCell>
        <mxCell id="3y-TYH4g0Kz7OYsDt9np-7" value="BERÇÁRIO" style="swimlane;childLayout=stackLayout;horizontal=1;startSize=50;horizontalStack=0;rounded=1;fontSize=14;fontStyle=0;strokeWidth=2;resizeParent=0;resizeLast=1;shadow=0;dashed=0;align=center;arcSize=4;whiteSpace=wrap;html=1;" parent="1" vertex="1">
          <mxGeometry x="350" y="240" width="160" height="120" as="geometry" />
        </mxCell>
        <mxCell id="3y-TYH4g0Kz7OYsDt9np-16" value="" style="endArrow=none;html=1;rounded=0;entryX=-0.002;entryY=0.387;entryDx=0;entryDy=0;exitX=0.5;exitY=0;exitDx=0;exitDy=0;entryPerimeter=0;" parent="1" source="3y-TYH4g0Kz7OYsDt9np-1" target="3y-TYH4g0Kz7OYsDt9np-4" edge="1">
          <mxGeometry width="50" height="50" relative="1" as="geometry">
            <mxPoint x="400" y="690" as="sourcePoint" />
            <mxPoint x="450" y="640" as="targetPoint" />
          </mxGeometry>
        </mxCell>
        <mxCell id="3y-TYH4g0Kz7OYsDt9np-23" value="ARMAZENAR" style="edgeLabel;html=1;align=center;verticalAlign=middle;resizable=0;points=[];rotation=-50;" parent="3y-TYH4g0Kz7OYsDt9np-16" vertex="1" connectable="0">
          <mxGeometry x="0.2371" y="-3" relative="1" as="geometry">
            <mxPoint x="-10" y="-16" as="offset" />
          </mxGeometry>
        </mxCell>
        <mxCell id="3y-TYH4g0Kz7OYsDt9np-17" value="" style="endArrow=none;html=1;rounded=0;entryX=1.007;entryY=0.401;entryDx=0;entryDy=0;entryPerimeter=0;exitX=0.581;exitY=0.005;exitDx=0;exitDy=0;exitPerimeter=0;" parent="1" source="3y-TYH4g0Kz7OYsDt9np-5" target="3y-TYH4g0Kz7OYsDt9np-4" edge="1">
          <mxGeometry width="50" height="50" relative="1" as="geometry">
            <mxPoint x="570" y="670" as="sourcePoint" />
            <mxPoint x="620" y="620" as="targetPoint" />
          </mxGeometry>
        </mxCell>
        <mxCell id="3y-TYH4g0Kz7OYsDt9np-24" value="ARMAZENAR" style="edgeLabel;html=1;align=center;verticalAlign=middle;resizable=0;points=[];rotation=50;" parent="3y-TYH4g0Kz7OYsDt9np-17" vertex="1" connectable="0">
          <mxGeometry x="0.4397" relative="1" as="geometry">
            <mxPoint x="31" y="18" as="offset" />
          </mxGeometry>
        </mxCell>
        <mxCell id="xraj74hxMdlII2D9RcbE-1" value="ENDEREÇO" style="swimlane;childLayout=stackLayout;horizontal=1;startSize=50;horizontalStack=0;rounded=1;fontSize=14;fontStyle=0;strokeWidth=2;resizeParent=0;resizeLast=1;shadow=0;dashed=0;align=center;arcSize=4;whiteSpace=wrap;html=1;" vertex="1" parent="1">
          <mxGeometry x="160" y="840" width="160" height="120" as="geometry" />
        </mxCell>
        <mxCell id="xraj74hxMdlII2D9RcbE-2" value="&lt;div&gt;&lt;br&gt;&lt;/div&gt;" style="align=left;strokeColor=none;fillColor=none;spacingLeft=4;spacingRight=4;fontSize=12;verticalAlign=top;resizable=0;rotatable=0;part=1;html=1;whiteSpace=wrap;" vertex="1" parent="xraj74hxMdlII2D9RcbE-1">
          <mxGeometry y="50" width="160" height="70" as="geometry" />
        </mxCell>
        <mxCell id="xraj74hxMdlII2D9RcbE-10" value="" style="endArrow=none;html=1;rounded=0;exitX=0.5;exitY=0;exitDx=0;exitDy=0;entryX=0.5;entryY=1;entryDx=0;entryDy=0;" edge="1" parent="1" source="xraj74hxMdlII2D9RcbE-1" target="3y-TYH4g0Kz7OYsDt9np-2">
          <mxGeometry width="50" height="50" relative="1" as="geometry">
            <mxPoint x="190" y="770" as="sourcePoint" />
            <mxPoint x="250" y="730" as="targetPoint" />
          </mxGeometry>
        </mxCell>
      </root>
    </mxGraphModel>
  </diagram>
</mxfile>
